<?xml version="1.0" standalone="no"?>
<!DOCTYPE svg PUBLIC "-//W3C//DTD SVG 20010904//EN"
 "http://www.w3.org/TR/2001/REC-SVG-20010904/DTD/svg10.dtd">
<svg version="1.0" xmlns="http://www.w3.org/2000/svg"
 width="512.000000pt" height="512.000000pt" viewBox="0 0 512.000000 512.000000"
 preserveAspectRatio="xMidYMid meet">

<g transform="translate(0.000000,512.000000) scale(0.100000,-0.100000)"
fill="#000000" stroke="none">
<path d="M3105 4030 c-58 -28 -1359 -1332 -1380 -1382 -21 -52 -19 -133 5
-182 13 -28 240 -261 687 -707 728 -726 691 -695 803 -687 105 8 180 83 188
188 8 111 32 83 -601 718 l-581 582 581 583 c633 635 609 606 601 718 -5 72
-45 133 -109 166 -55 30 -138 31 -194 3z"/>
</g>
</svg>
