<?xml version="1.0" standalone="no"?>
<!DOCTYPE svg PUBLIC "-//W3C//DTD SVG 20010904//EN"
 "http://www.w3.org/TR/2001/REC-SVG-20010904/DTD/svg10.dtd">
<svg version="1.0" xmlns="http://www.w3.org/2000/svg"
 width="512.000000pt" height="512.000000pt" viewBox="0 0 512.000000 512.000000"
 preserveAspectRatio="xMidYMid meet">

<g transform="translate(0.000000,512.000000) scale(0.100000,-0.100000)"
fill="#6366F1" stroke="none">
<path d="M2425 4964 c-595 -40 -1148 -287 -1560 -699 -199 -199 -338 -392
-460 -640 -288 -583 -329 -1233 -119 -1848 296 -863 1049 -1477 1969 -1604
152 -21 456 -20 615 1 1089 146 1926 985 2077 2081 18 133 21 453 4 580 -71
553 -306 1037 -690 1422 -374 376 -868 621 -1391 688 -115 15 -350 25 -445 19z
m500 -233 c778 -138 1404 -650 1689 -1383 183 -469 194 -998 31 -1486 -270
-808 -985 -1388 -1833 -1487 -915 -107 -1804 372 -2217 1195 -311 619 -315
1334 -10 1955 157 322 374 584 661 800 297 224 685 378 1069 424 135 16 472 6
610 -18z"/>
<path d="M2524 3741 c-12 -5 -31 -22 -43 -37 -21 -26 -21 -31 -21 -535 l0
-509 -510 0 -510 0 -32 -29 c-27 -24 -33 -36 -33 -71 0 -35 6 -47 33 -71 l32
-29 510 0 510 0 0 -510 0 -510 29 -32 c24 -27 36 -33 71 -33 35 0 47 6 71 33
l29 32 0 510 0 510 510 0 510 0 32 29 c27 24 33 36 33 71 0 35 -6 47 -33 71
l-32 29 -510 0 -510 0 0 510 0 510 -27 30 c-30 32 -75 45 -109 31z"/>
</g>
</svg>
