<?xml version="1.0" standalone="no"?>
<!DOCTYPE svg PUBLIC "-//W3C//DTD SVG 20010904//EN"
 "http://www.w3.org/TR/2001/REC-SVG-20010904/DTD/svg10.dtd">
<svg version="1.0" xmlns="http://www.w3.org/2000/svg"
 width="512.000000pt" height="512.000000pt" viewBox="0 0 512.000000 512.000000"
 preserveAspectRatio="xMidYMid meet">

<g transform="translate(0.000000,512.000000) scale(0.100000,-0.100000)"
fill="#000000" stroke="none">
<path d="M1235 3985 c-22 -8 -52 -28 -67 -44 -27 -30 -50 -92 -43 -114 2 -7 6
-25 10 -42 5 -22 156 -180 603 -627 l597 -598 -597 -597 c-447 -448 -598 -606
-603 -628 -4 -16 -8 -35 -10 -42 -7 -23 17 -84 46 -117 27 -32 95 -60 123 -51
6 2 25 6 41 10 22 5 180 156 628 603 l597 597 598 -597 c328 -328 607 -601
619 -607 12 -6 43 -11 70 -11 90 0 153 63 153 153 0 27 -5 58 -11 70 -6 12
-279 291 -607 619 l-597 598 597 597 c447 448 598 606 603 628 4 17 8 35 10
41 9 28 -19 96 -51 123 -33 29 -94 53 -117 46 -7 -2 -25 -6 -42 -10 -22 -5
-180 -156 -627 -603 l-598 -597 -597 597 c-447 446 -606 598 -628 603 -16 4
-37 8 -45 10 -8 2 -33 -2 -55 -10z"/>
</g>
</svg>
