<?xml version="1.0" standalone="no"?>
<!DOCTYPE svg PUBLIC "-//W3C//DTD SVG 20010904//EN"
 "http://www.w3.org/TR/2001/REC-SVG-20010904/DTD/svg10.dtd">
<svg version="1.0" xmlns="http://www.w3.org/2000/svg"
 width="48" height="48" viewBox="0 0 2048.000000 2048.000000"
 preserveAspectRatio="xMidYMid meet">

<g transform="translate(0.000000,2600.000000) scale(0.14000,-0.15000)"
fill="#4f46e5" stroke="none">
<path d="M6366 15718 c-3 -7 -10 -69 -16 -138 -7 -69 -14 -138 -16 -155 -13
-81 -12 -444 0 -520 41 -242 123 -412 266 -553 150 -147 258 -194 660 -286
266 -60 623 -171 875 -271 565 -225 1083 -577 1493 -1018 184 -198 393 -477
542 -727 34 -58 64 -106 65 -108 2 -2 36 52 78 120 287 470 634 865 1017 1158
516 393 1123 670 1823 830 122 28 258 60 302 71 355 91 573 317 662 689 42
177 42 450 1 815 -6 55 -12 102 -14 104 -2 2 -31 -17 -66 -41 -220 -157 -717
-427 -1103 -598 -77 -34 -160 -72 -185 -83 -78 -35 -549 -226 -699 -283 l-144
-55 -201 51 c-301 77 -499 114 -806 152 -168 21 -226 23 -625 23 -435 -1 -596
-9 -855 -46 -166 -23 -416 -73 -605 -121 -110 -28 -209 -53 -220 -55 -12 -3
-61 11 -110 30 -556 213 -855 340 -1220 517 -306 148 -678 357 -832 467 -44
31 -64 41 -67 31z"/>
<path d="M7079 13823 c-347 -296 -620 -707 -744 -1123 -81 -271 -111 -492
-102 -748 4 -97 9 -188 11 -202 3 -14 14 -97 26 -185 11 -88 23 -167 25 -175
12 -42 35 -348 39 -514 3 -104 9 -193 13 -197 25 -25 364 -152 547 -205 276
-80 468 -114 676 -119 226 -6 227 -5 61 80 -225 117 -391 246 -529 409 -228
272 -356 575 -406 966 -11 79 -8 342 3 430 30 227 91 428 185 614 197 389 507
651 920 776 l90 27 -57 21 c-127 48 -381 122 -517 151 -80 17 -154 33 -166 36
-14 3 -37 -10 -75 -42z"/>
<path d="M13295 13853 c-152 -22 -425 -93 -618 -161 l-107 -38 52 -13 c87 -22
297 -107 383 -156 193 -110 352 -258 477 -444 377 -563 408 -1329 77 -1926
-164 -296 -409 -530 -732 -695 -59 -30 -107 -58 -107 -62 0 -14 267 -8 373 7
312 46 636 139 937 268 l105 45 6 238 c6 216 19 377 49 594 71 519 59 817 -49
1180 -70 238 -218 533 -370 735 -145 194 -386 437 -429 434 -9 -1 -30 -4 -47
-6z"/>
<path d="M8475 12825 c-113 -19 -169 -38 -256 -89 -155 -91 -280 -266 -324
-455 -21 -89 -16 -264 11 -351 65 -215 229 -382 454 -462 80 -29 273 -36 373
-14 202 45 390 192 478 374 53 110 72 209 66 337 -17 352 -256 616 -601 664
-92 13 -98 13 -201 -4z"/>
<path d="M11815 12828 c-240 -21 -466 -180 -562 -396 -45 -103 -63 -196 -59
-312 5 -122 23 -197 71 -295 90 -184 267 -323 470 -371 105 -24 295 -15 393
20 227 79 400 271 447 497 33 155 11 339 -55 475 -131 268 -391 409 -705 382z"/>
<path d="M10204 11665 c-26 -17 -126 -148 -304 -395 -253 -350 -310 -431 -310
-440 0 -15 459 -780 587 -978 45 -70 56 -82 68 -72 15 12 129 194 275 435 212
351 370 616 370 621 0 3 -60 88 -133 187 -73 100 -187 256 -252 347 -228 317
-246 334 -301 295z"/>
<path d="M6330 10084 c0 -237 21 -576 50 -829 45 -386 54 -443 116 -785 23
-123 98 -430 150 -614 45 -157 151 -474 163 -488 10 -11 234 128 348 215 119
91 312 287 405 411 250 333 390 737 390 1127 0 146 -56 291 -174 451 -177 240
-535 450 -993 582 -134 38 -322 81 -402 92 l-53 7 0 -169z"/>
<path d="M14065 10243 c-388 -82 -588 -146 -844 -269 -333 -160 -550 -368
-654 -626 -36 -89 -55 -166 -82 -348 -35 -232 -100 -548 -170 -829 -99 -392
-170 -635 -299 -1015 l-33 -100 -106 135 c-270 343 -974 1260 -1356 1767 -100
132 -193 247 -206 256 -14 9 -45 16 -74 16 -77 0 -63 15 -509 -570 -156 -205
-594 -778 -658 -860 -69 -89 -378 -492 -477 -622 -45 -59 -85 -107 -88 -107
-7 -1 -72 177 -153 419 -76 229 -157 513 -228 805 l-51 209 -24 -69 c-37 -111
-154 -340 -238 -465 -206 -306 -454 -538 -791 -739 -65 -39 -122 -72 -127 -74
-6 -2 16 -64 47 -138 113 -265 279 -557 459 -808 252 -351 616 -719 1027
-1040 l105 -82 43 48 c398 440 977 1137 1537 1850 94 119 122 150 132 141 8
-6 44 -50 80 -97 391 -504 827 -1041 1092 -1346 241 -277 520 -585 530 -585 4
0 68 48 142 106 334 265 606 532 842 827 335 419 610 940 801 1519 96 291 212
733 255 978 42 234 70 408 81 500 6 52 13 106 15 120 3 14 9 77 15 140 31 334
39 457 46 713 l7 247 -34 -1 c-19 -1 -43 -3 -54 -6z"/>
</g>
</svg>
