<svg xmlns="http://www.w3.org/2000/svg" viewBox="0 0 445 105.69"><title>Coupang logo</title><path d="M530.5,474c-3-5.78-9-12.33-21.75-12.33a24.15,24.15,0,0,0-17.5,7v-4.78a.8.8,0,0,0-.75-.75H479.25a.8.8,0,0,0-.75.75v95.62a.8.8,0,0,0,.75.75H491.5a.8.8,0,0,0,.75-.75V527.1A24.45,24.45,0,0,0,509,533.39c12.75,0,18.75-6.54,21.75-12.33A33.43,33.43,0,0,0,534,507.47V488.1c-.25-1.51-.5-8.05-3.5-14.09Zm-11,34c0,3-2,13.09-13.75,13.09-12,0-13.75-10.32-13.75-13.09V487.34c0-3,2-13.08,13.75-13.08,12,0,13.75,10.32,13.75,13.08V508Z" transform="translate(-289.5 -459.16)" style="fill:#f7552f"/><path d="M346.5,487.84a31.15,31.15,0,0,1,3.5-13.59c3.25-5.79,10.25-12.33,24.25-12.33s21,6.54,24.25,12.33a27.78,27.78,0,0,1,3.5,13.59v19.38a31.19,31.19,0,0,1-3.5,13.59c-3.25,5.78-10,12.33-24.25,12.33-14,0-21-6.54-24.25-12.33a27.78,27.78,0,0,1-3.5-13.59Zm14,19.88c0,3,2,13.09,13.75,13.09,12,0,14-10.32,14-13.09V487.09c0-3-2-13.08-14-13.08s-13.75,10.32-13.75,13.09Zm106.75-43.79a.67.67,0,0,0-.75-.75H454.25a.8.8,0,0,0-.75.75v43.79c0,3-2,13.09-13.75,13.09-12,0-14-10.32-14-13.09V463.94a.8.8,0,0,0-.75-.75H412.75a.8.8,0,0,0-.75.75v43.28a29.56,29.56,0,0,0,3.25,13.59c3,5.78,9,12.33,21.75,12.33a21.66,21.66,0,0,0,10.5-2.26,24.57,24.57,0,0,0,7-4.78v4.78a.8.8,0,0,0,.75.75H466.5a.8.8,0,0,0,.75-.75Z" transform="translate(-289.5 -459.16)" style="fill:#935227"/><path d="M594.75,487.09c0-5.53-2.75-18.37-15-23.4-12-5-27.75.5-32.75,2.51l-1,.5a.92.92,0,0,0-.5,1.26L549,478c.25.5.5.75,1,.5.25,0,.25-.25.5-.25,4.75-2.52,17-6.54,24.5-3s6.75,11.33,6.75,12.33v2A27.74,27.74,0,0,0,566,484.32c-12.75,0-18.75,6.29-21.75,11.58A30.89,30.89,0,0,0,541,508.73a29.43,29.43,0,0,0,3.25,12.83c3,5.53,9,11.58,21.75,11.58a26,26,0,0,0,16.25-5.53v3.27a.8.8,0,0,0,.75.75h10.75a.8.8,0,0,0,.75-.75V487.34C594.75,487.34,594.75,487.34,594.75,487.09Zm-13,21.89c0,2.77-2,12.33-13.5,12.33s-13.5-9.56-13.5-12.33v-1c0-2.77,2-12.33,13.5-12.33s13.5,9.56,13.5,12.33Z" transform="translate(-289.5 -459.16)" style="fill:#ffc400"/><path d="M733,462.18a18.07,18.07,0,0,0-14.75,6c-4-3.52-10.25-6.29-19.75-6.29-14,0-21,6.29-24.25,11.83a25.79,25.79,0,0,0-3.5,13.08v.76a28.92,28.92,0,0,0,3.5,13.09,23.84,23.84,0,0,0,7,7.3c-5.25,3-10,8.56-10,18.37v5.28a1.12,1.12,0,0,0,.75,1h40.25a8,8,0,0,1,8,6.29c.75,3.77-.5,8.81-7,12.33l-.5.25c-.5.25-.5.76-.25,1.26l5.5,9.82c.25.5.75.5,1.25.25,0,0,2.75-1.76,3.75-2.26a9.72,9.72,0,0,0,2.5-2,23.49,23.49,0,0,0,6.75-22.39c-2-9.56-10-15.1-20-15.1H684.5c1.5-8.56,11.25-8.3,12.5-8.3h1.5c14,0,21-6.29,24.25-11.83a25.77,25.77,0,0,0,3.5-13.09v-1.26A24.62,24.62,0,0,0,724,476.27a13.9,13.9,0,0,1,9-2.26,1.12,1.12,0,0,0,1-.75v-9.82a1.15,1.15,0,0,0-1-1.26Zm-20.75,25.16c0,2.77-2,12.33-13.75,12.58-12,0-13.75-9.81-13.75-12.58v-.75c0-2.77,2-12.33,13.75-12.58,12,0,13.75,9.82,13.75,12.58Z" transform="translate(-289.5 -459.16)" style="fill:#31b4dd"/><path d="M342,518.54,331.25,513a.91.91,0,0,0-1.25.5v.25c-1.75,3.52-5.25,7.3-12.5,7.55-12,0-13.75-10.32-13.75-13.09V487.59c0-3,2-13.08,13.75-13.08,7.25,0,11,4,12.5,7.55.25.25.5.76,1,.76h.5l10.5-5.53c.5-.25.5-.76.25-1.26s-.5-.76-.5-1.26c-3.25-5.79-10-12.33-24.25-12.33-14,0-21,6.54-24.25,12.33-3.5,5.28-3.75,11.83-3.75,13.08v19.38a31.19,31.19,0,0,0,3.5,13.59c3.25,5.78,10,12.33,24.25,12.33h.25c14,0,21-6.54,24.25-12.33l.75-1.26a1.92,1.92,0,0,0-.5-1Z" transform="translate(-289.5 -459.16)" style="fill:#935227"/><path d="M658,474c-3-5.78-9.25-12.33-21.75-12.33a24.61,24.61,0,0,0-17.5,7v-4.78a.8.8,0,0,0-.75-.75H606.75a.8.8,0,0,0-.75.75v67.19a.8.8,0,0,0,.75.76H619a.8.8,0,0,0,.75-.76V486.58c.25-3.52,2.75-12.33,13.75-12.58,12,0,14,10.32,14,13.09v44a.8.8,0,0,0,.75.76H660.5a.8.8,0,0,0,.75-.76V487.84A30.34,30.34,0,0,0,658,474Z" transform="translate(-289.5 -459.16)" style="fill:#88cc2f"/><path d="M289.5,459.16h445V564.84h-445Z" transform="translate(-289.5 -459.16)" style="fill:none"/></svg>